<svg width="48" height="43" viewBox="0 0 48 43" fill="none" xmlns="http://www.w3.org/2000/svg">
<path d="M10.0148 3.45225C11.2212 1.36263 13.4508 0.0753695 15.8637 0.0753698L32.1858 0.0753699C34.5986 0.0753704 36.8282 1.36263 38.0347 3.45225L46.1957 17.5875C47.4021 19.6772 47.4021 22.2517 46.1957 24.3413L38.0347 38.4766C36.8282 40.5662 34.5986 41.8535 32.1858 41.8535L15.8637 41.8535C13.4508 41.8535 11.2212 40.5662 10.0148 38.4766L1.85379 24.3413C0.647344 22.2517 0.647345 19.6772 1.85379 17.5875L10.0148 3.45225Z" fill="#D9D9D9"/>
<path fill-rule="evenodd" clip-rule="evenodd" d="M33.2956 15.6935V26.4271L24 31.794V20.6382L33.2956 15.6935Z" fill="#76A2B7"/>
<path d="M14.7044 26.4271L24 31.794V20.6382L14.7044 15.6935V26.4271Z" fill="#3F7D9B"/>
<path d="M33.2956 15.6935L24 10.3266L14.7044 15.6935L24 20.6382L33.2956 15.6935Z" fill="#B3BEC4"/>
<path d="M43.5377 13.1608C37.6478 4.09334 27.6871 7.62359 24 10.3266L33.2864 15.6935V26.4271C33.2864 26.4271 34.5576 40.4771 20.6231 41.804H31.5409C37.5678 42.1055 38.5188 37.6617 41.4271 32.6382C43.4171 29.201 47.3367 22.9899 47.1558 21.3015C47.356 18.7724 44.9379 15.3164 43.5377 13.1608Z" fill="url(#paint0_linear_187_185)"/>
<path d="M4.47242 28.9334C10.3597 38.0643 20.316 34.5093 24.0015 31.7874L14.7192 26.3831V15.5744C14.7192 15.5744 13.4485 1.4262 27.3769 0.0899887H16.4639C10.4396 -0.213627 9.48909 4.26129 6.58204 9.31988C4.59297 12.7811 0.675098 19.0356 0.855923 20.7358C0.655739 23.2826 3.07283 26.7627 4.47242 28.9334Z" fill="url(#paint1_linear_187_185)"/>
<path d="M24 10.4472C20.3662 12.5813 14.7405 15.7538 14.7405 15.7538C14.7405 15.7538 13.2664 1.76381 27.0551 0.167124C28.6376 -0.0161331 35.452 -0.524546 37.5076 2.96985C40.5226 8.09547 43.8392 13.5829 43.8392 13.5829C43.8392 13.5829 36.6131 3.03971 24 10.4472Z" fill="url(#paint2_linear_187_185)"/>
<path d="M23.9397 31.6734C27.5735 29.5393 33.1992 26.3668 33.1992 26.3668C33.1992 26.3668 34.6733 40.3568 20.8846 41.9535C19.3021 42.1367 12.4877 42.6452 10.4321 39.1508C7.41707 34.0251 4.10049 28.5377 4.10049 28.5377C4.10049 28.5377 11.3266 39.0809 23.9397 31.6734Z" fill="url(#paint3_linear_187_185)"/>
<defs>
<linearGradient id="paint0_linear_187_185" x1="33.3467" y1="8.29708" x2="33.3467" y2="41.804" gradientUnits="userSpaceOnUse">
<stop stop-color="#86C5FF"/>
<stop offset="1" stop-color="white"/>
</linearGradient>
<linearGradient id="paint1_linear_187_185" x1="14.6589" y1="33.8311" x2="14.6589" y2="0.090003" gradientUnits="userSpaceOnUse">
<stop stop-color="#86C5FF"/>
<stop offset="1" stop-color="white"/>
</linearGradient>
<linearGradient id="paint2_linear_187_185" x1="28.9447" y1="0.0753688" x2="28.9447" y2="15.7538" gradientUnits="userSpaceOnUse">
<stop stop-color="#86C5FF"/>
<stop offset="1" stop-color="white"/>
</linearGradient>
<linearGradient id="paint3_linear_187_185" x1="18.995" y1="42.0452" x2="18.995" y2="26.3668" gradientUnits="userSpaceOnUse">
<stop stop-color="#86C5FF"/>
<stop offset="1" stop-color="white"/>
</linearGradient>
</defs>
</svg>
